<?xml version="1.0" encoding="utf-8"?>
<!-- Generator: Adobe Illustrator 24.1.1, SVG Export Plug-In . SVG Version: 6.00 Build 0)  -->
<svg version="1.1" id="Layer_1" xmlns="http://www.w3.org/2000/svg" xmlns:xlink="http://www.w3.org/1999/xlink" x="0px" y="0px"
	 viewBox="0 0 512 512" style="enable-background:new 0 0 512 512;" xml:space="preserve">
<g>
	<path d="M256,512C114.6,512,0,397.4,0,256c0-70.7,28.7-134.7,75-181.1C121.3,28.6,185.3,0,256,0c141.4,0,256,114.6,256,256
		c0,70.7-28.6,134.6-74.9,181c-46.1,46.3-109.9,75-180.3,75H256L256,512L256,512z M256,34.1C133.7,34.1,34.1,133.6,34.1,256
		S133.7,477.9,256,477.9S477.9,378.3,477.9,256S378.4,34.1,256,34.1z"/>
	<polygon points="286.7,387.5 155.1,256 286.7,124.4 310.8,148.5 203.4,256 310.8,363.4 286.7,387.5 	"/>
</g>
</svg>
