<?xml version="1.0" encoding="utf-8"?>
<!-- Generator: Adobe Illustrator 21.0.0, SVG Export Plug-In . SVG Version: 6.00 Build 0)  -->
<svg version="1.1" id="Layer_1" xmlns="http://www.w3.org/2000/svg" xmlns:xlink="http://www.w3.org/1999/xlink" x="0px" y="0px"
	 viewBox="0 0 512 512" style="enable-background:new 0 0 512 512;" xml:space="preserve">
<g>
	<path d="M256,0C114.8,0,0,114.8,0,256s114.8,256,256,256s256-114.8,256-256S397.2,0,256,0z M256,39.4
		c119.8,0,216.6,96.8,216.6,216.6S375.8,472.6,256,472.6S39.4,375.8,39.4,256S136.2,39.4,256,39.4z M220.9,123.7L192.6,152l104,104
		l-104,104l28.3,28.3l118.2-118.2l13.5-14.2l-13.5-14.2L220.9,123.7z"/>
</g>
</svg>
